<?xml version="1.0" standalone="no"?>
<!DOCTYPE svg PUBLIC "-//W3C//DTD SVG 20010904//EN"
 "http://www.w3.org/TR/2001/REC-SVG-20010904/DTD/svg10.dtd">
<svg version="1.0" xmlns="http://www.w3.org/2000/svg"
 width="1280.000000pt" height="1280.000000pt" viewBox="0 0 1280.000000 1280.000000"
 preserveAspectRatio="xMidYMid meet">

<g transform="translate(0.000000,1280.000000) scale(0.100000,-0.100000)"
fill="#000000" stroke="none">
<path d="M6130 12794 c-30 -2 -125 -8 -210 -14 -996 -69 -2011 -397 -2867
-926 -638 -395 -1216 -908 -1674 -1489 -729 -924 -1188 -2019 -1328 -3175 -37
-305 -45 -450 -45 -800 0 -358 13 -558 55 -860 247 -1797 1238 -3394 2744
-4422 2014 -1375 4659 -1476 6780 -258 1244 715 2221 1839 2756 3173 232 578
375 1180 435 1837 24 258 24 825 0 1080 -104 1120 -453 2114 -1058 3019 -333
496 -766 977 -1233 1366 -996 831 -2225 1334 -3540 1451 -161 14 -696 26 -815
18z m855 -733 c233 -25 450 -60 657 -107 2292 -510 4045 -2396 4387 -4719 69
-467 78 -997 26 -1465 -96 -865 -390 -1699 -855 -2427 -363 -568 -836 -1080
-1372 -1483 -1194 -901 -2655 -1289 -4148 -1104 -1365 169 -2638 848 -3558
1897 -1362 1554 -1772 3717 -1075 5672 314 883 874 1707 1588 2339 943 835
2124 1327 3398 1416 208 14 736 4 952 -19z"/>
<path d="M6085 11009 c-1980 -127 -3679 -1548 -4165 -3482 -97 -385 -134 -696
-134 -1127 0 -345 12 -489 64 -794 247 -1447 1189 -2702 2515 -3351 989 -485
2089 -601 3164 -335 573 142 1162 422 1635 777 373 280 739 655 1004 1026 456
641 734 1370 827 2172 22 189 30 628 16 830 -118 1633 -1081 3075 -2541 3805
-741 371 -1549 533 -2385 479z m764 -2252 l386 -1198 1343 1 c738 0 1342 -3
1341 -7 0 -5 -486 -363 -1080 -798 -594 -434 -1082 -793 -1084 -796 -2 -3 182
-584 410 -1290 227 -706 412 -1285 410 -1287 -2 -2 -2000 1458 -2141 1565
l-31 23 -1084 -795 c-596 -437 -1087 -795 -1091 -795 -4 0 -3 10 2 22 27 64
820 2544 816 2553 -2 6 -482 361 -1067 790 -585 428 -1073 786 -1084 797 -19
18 13 18 1328 16 l1347 -3 9 30 c17 62 814 2530 819 2540 3 5 19 -31 35 -80
16 -50 203 -629 416 -1288z"/>
</g>
</svg>
